<svg width="1980" height="600" viewBox="0 60 1980 500" fill="none" xmlns="http://www.w3.org/2000/svg" role="img" aria-labelledby="title desc">
  <title id="title">React-Natives logo</title>
  <desc id="desc">High-resolution React-Natives horizontal logo with plus signs, italic wordmark, and tilted mobile-device icon.</desc>
  <defs>
    <linearGradient id="orbGradient" x1="84" y1="108" x2="434" y2="458" gradientUnits="userSpaceOnUse">
      <stop stop-color="#61DBFB"/>
      <stop offset="1" stop-color="#2BA8CC"/>
    </linearGradient>
    <linearGradient id="phoneBody" x1="156" y1="154" x2="344" y2="408" gradientUnits="userSpaceOnUse">
      <stop stop-color="#F8FBFF"/>
      <stop offset="1" stop-color="#D9E8F5"/>
    </linearGradient>
    <linearGradient id="phoneScreen" x1="174" y1="184" x2="302" y2="362" gradientUnits="userSpaceOnUse">
      <stop stop-color="#F9FCFF"/>
      <stop offset="1" stop-color="#E4EDF6"/>
    </linearGradient>
  </defs>

  <circle cx="250" cy="304" r="224" fill="url(#orbGradient)"/>
  <circle cx="250" cy="304" r="224" stroke="#2BA8CC" stroke-width="10"/>
  <circle cx="250" cy="304" r="160" fill="none" stroke="#E8F9FE" stroke-width="10"/>

  <path d="M162 120H194" stroke="#E8F9FE" stroke-width="10" stroke-linecap="round"/>
  <path d="M178 104V136" stroke="#E8F9FE" stroke-width="10" stroke-linecap="round"/>
  <path d="M204 96H230" stroke="#E8F9FE" stroke-width="8" stroke-linecap="round"/>
  <path d="M217 83V109" stroke="#E8F9FE" stroke-width="8" stroke-linecap="round"/>
  <path d="M130 146H150" stroke="#61DBFB" stroke-width="6" stroke-linecap="round"/>
  <path d="M140 136V156" stroke="#61DBFB" stroke-width="6" stroke-linecap="round"/>

  <g transform="rotate(-16 246 324)">
    <rect x="154" y="152" width="188" height="282" rx="34" fill="url(#phoneBody)" stroke="#8FA7BA" stroke-width="10"/>
    <rect x="176" y="182" width="144" height="206" rx="20" fill="url(#phoneScreen)"/>
    <rect x="194" y="208" width="108" height="8" rx="4" fill="#C8D4E0"/>
    <rect x="194" y="234" width="96" height="8" rx="4" fill="#C8D4E0"/>
    <rect x="194" y="260" width="102" height="8" rx="4" fill="#C8D4E0"/>
    <rect x="220" y="166" width="56" height="6" rx="3" fill="#C0D2E1"/>
    <circle cx="248" cy="408" r="8" fill="#C0D2E1"/>
    <path d="M188 222L304 350" stroke="#ECF3FA" stroke-width="7" stroke-linecap="round"/>
  </g>

  <g transform="skewX(-9)">
    <text x="620" y="266" fill="#2BA8CC" font-size="132" font-family="Inter, Segoe UI, Roboto, Helvetica, Arial, sans-serif" font-style="italic" font-weight="800" letter-spacing="16">REACT-NATIVES</text>
    <text x="620" y="376" fill="#61DBFB" font-size="58" font-family="Inter, Segoe UI, Roboto, Helvetica, Arial, sans-serif" font-style="italic" font-weight="600" letter-spacing="14">WIRED FOR SPEED</text>
  </g>
</svg>